<svg version="1.1" id="Layer_1" xmlns="http://www.w3.org/2000/svg" xmlns:xlink="http://www.w3.org/1999/xlink" x="0px" y="0px"
	 width="100%" viewBox="0 0 2000 1247" enable-background="new 0 0 2000 1247" xml:space="preserve">
<path fill="#4C6971" opacity="1.000000" stroke="none" 
	d="
M670.000000,1.000001 
	C1113.621094,1.000000 1557.242065,1.000000 2000.931641,1.000000 
	C2000.931641,416.578308 2000.931641,832.156677 2000.931641,1248.000000 
	C1557.633911,1248.000000 1114.267822,1248.000000 670.675171,1247.632568 
	C675.378967,1246.848145 680.332275,1246.609985 685.235535,1245.981812 
	C702.806702,1243.731201 720.559143,1242.318848 737.874268,1238.783447 
	C762.663452,1233.721924 787.361511,1227.885010 811.677490,1220.911255 
	C848.280334,1210.413818 883.335266,1195.732178 916.807495,1177.524048 
	C932.929016,1168.754395 949.019897,1159.808838 964.396484,1149.821777 
	C981.147278,1138.942261 997.123413,1126.858521 1013.291138,1115.098999 
	C1018.905518,1111.015259 1024.083008,1106.330811 1029.880859,1101.575684 
	C1028.701538,1101.257935 1028.265503,1101.038208 1027.829224,1101.037598 
	C1009.830750,1101.013672 991.832153,1100.986084 973.833923,1101.055298 
	C972.636780,1101.059937 971.243896,1101.550171 970.275940,1102.265869 
	C948.092957,1118.670654 924.630554,1133.094727 900.192566,1145.773438 
	C883.036865,1154.673950 865.451843,1162.976440 847.433960,1169.927002 
	C825.211914,1178.499756 802.541138,1186.065430 779.698181,1192.830444 
	C754.417786,1200.317505 728.534912,1205.441650 702.231079,1208.066040 
	C685.535339,1209.732056 668.852295,1212.481323 652.133240,1212.733154 
	C627.603271,1213.102539 603.022705,1212.123291 578.509277,1210.844604 
	C563.110779,1210.041260 547.636658,1208.508545 532.482300,1205.739136 
	C511.929382,1201.983276 491.580017,1197.017090 471.268982,1192.055542 
	C436.466370,1183.554321 403.311707,1170.373169 371.099762,1154.919434 
	C340.751099,1140.359863 312.070404,1122.939941 284.590881,1103.403076 
	C261.184753,1086.762207 239.159836,1068.513794 218.500946,1048.703735 
	C204.897751,1035.659424 191.963303,1021.760681 180.005432,1007.196899 
	C164.622879,988.462097 149.715973,969.223083 136.100494,949.184631 
	C123.789520,931.065979 113.046989,911.824524 102.466042,892.608337 
	C95.842232,880.578735 90.660011,867.740723 85.071396,855.158691 
	C72.826324,827.590393 63.469944,799.006775 56.048748,769.808228 
	C49.509895,744.081116 44.241562,718.082153 41.992290,691.576355 
	C40.514996,674.167603 38.708889,656.754578 38.147793,639.308105 
	C37.364834,614.963196 37.907429,590.596924 40.997414,566.369141 
	C43.011124,550.580139 44.073521,534.590149 47.316105,519.056274 
	C52.218212,495.572327 57.760136,472.141174 64.640732,449.170013 
	C74.757446,415.394989 88.396584,382.944977 104.995361,351.750702 
	C117.796051,327.694153 132.069092,304.630890 147.780487,282.352844 
	C165.107681,257.783661 184.334671,234.827789 205.341873,213.460205 
	C219.695297,198.860550 235.027557,185.123795 250.764389,172.012100 
	C265.991943,159.324722 281.865997,147.299973 298.228821,136.114609 
	C323.545288,118.808685 349.951080,103.193001 378.191986,91.022163 
	C396.365875,83.189865 414.504700,75.109200 433.185089,68.663933 
	C453.709045,61.582584 474.611420,55.264233 495.765076,50.437061 
	C516.314392,45.747807 537.338867,42.991932 558.253967,40.106495 
	C572.752747,38.106255 587.403076,36.467926 602.015198,36.184185 
	C629.851807,35.643631 657.739563,35.180244 685.464417,38.969166 
	C701.236206,41.124565 717.184143,42.283669 732.798218,45.237026 
	C761.396606,50.646320 789.764709,57.331856 817.055481,67.649040 
	C838.309998,75.684258 859.452515,84.094467 880.242004,93.252319 
	C893.138306,98.933212 905.562256,105.850945 917.694275,113.061432 
	C933.303955,122.338814 948.489990,132.341507 963.686646,142.294266 
	C968.967712,145.753036 973.868896,148.503860 980.744019,148.200562 
	C995.547363,147.547531 1010.399536,148.008621 1025.231689,147.985321 
	C1026.590088,147.983185 1027.948242,147.776398 1030.567871,147.560837 
	C1021.536865,140.512299 1013.543884,134.267685 1005.544250,128.031525 
	C974.797607,104.062660 941.713440,83.750648 907.000122,66.162956 
	C891.523743,58.321747 875.604431,51.182724 859.403259,44.987808 
	C839.270813,37.289658 818.848145,30.178383 798.159851,24.156916 
	C779.519226,18.731443 760.470947,14.481759 741.381104,10.889901 
	C723.196228,7.468318 704.728210,5.545700 686.378174,3.011287 
	C680.930115,2.258829 675.460022,1.665985 670.000000,1.000001 
M1137.380249,259.093292 
	C1111.067993,249.565781 1083.880859,243.775925 1056.096191,241.126755 
	C1038.671997,239.465439 1021.135742,238.181015 1003.646118,238.134933 
	C899.981201,237.861755 796.315186,238.000198 692.649536,238.000259 
	C690.886108,238.000259 689.122681,238.000275 687.251465,238.000275 
	C687.251465,245.297226 687.251465,251.894897 687.251465,258.130524 
	C692.000549,259.272461 696.500977,260.090759 700.830078,261.453369 
	C708.592712,263.896729 709.999817,266.095093 709.999817,274.426941 
	C710.000122,507.757965 710.000000,741.088989 709.999939,974.419983 
	C709.999939,975.419983 709.954651,976.422302 710.006897,977.419556 
	C710.213623,981.368774 708.494141,984.285461 704.832703,985.542664 
	C698.855896,987.594788 692.751709,989.276245 686.357178,991.218567 
	C686.357178,997.224365 686.357178,1003.940979 686.357178,1010.726318 
	C748.304138,1010.726318 809.893127,1010.726318 871.669922,1010.726318 
	C871.669922,1003.721497 871.669922,996.993103 871.669922,990.345520 
	C868.249146,989.840637 865.130859,989.539551 862.082947,988.901733 
	C851.697144,986.728333 849.000000,983.351746 849.000000,972.834656 
	C849.000000,879.168884 849.000000,785.503174 849.000000,691.837402 
	C849.000000,689.722168 849.000000,687.606934 849.000000,685.728516 
	C849.849609,685.359558 850.141113,685.122375 850.432983,685.121948 
	C884.097290,685.071899 917.761658,685.013000 951.425598,685.109985 
	C952.677490,685.113586 954.359070,686.365601 955.101440,687.513672 
	C958.924561,693.425842 962.576904,699.452454 966.159424,705.515564 
	C980.573792,729.910583 994.886414,754.365845 1009.342590,778.736084 
	C1020.205322,797.048584 1031.298828,815.224243 1042.165405,833.534485 
	C1056.628906,857.905212 1070.923950,882.375854 1085.380249,906.750854 
	C1098.833618,929.435120 1112.431885,952.033325 1125.902832,974.707214 
	C1129.480347,980.728699 1127.559326,985.841797 1120.694336,987.885010 
	C1116.055298,989.265808 1111.180176,989.853699 1106.433960,990.791687 
	C1106.433960,997.394043 1106.433960,1004.104553 1106.433960,1010.651733 
	C1176.457153,1010.651733 1246.045898,1010.651733 1315.737793,1010.651733 
	C1315.737793,1003.710632 1315.737793,997.119995 1315.737793,990.794617 
	C1308.966675,989.835388 1302.371338,989.406433 1296.078125,987.796326 
	C1292.933350,986.991760 1289.460693,984.620056 1287.658813,981.935303 
	C1281.550293,972.833862 1276.101440,963.288269 1270.437134,953.890381 
	C1258.351318,933.838623 1246.323853,913.751587 1234.207031,893.718689 
	C1220.308716,870.740723 1206.284790,847.838623 1192.418457,824.841492 
	C1181.004150,805.911011 1169.825562,786.838318 1158.390137,767.920715 
	C1139.753174,737.089722 1120.992065,706.333740 1102.646973,676.144531 
	C1117.550781,670.880005 1132.665283,666.507874 1146.979980,660.293335 
	C1182.133057,645.032288 1212.279663,622.830627 1236.012573,592.440918 
	C1248.843140,576.011414 1258.509399,557.756470 1264.806885,537.961121 
	C1273.834351,509.585052 1277.855713,480.408722 1275.956299,450.587799 
	C1275.245117,439.422180 1274.416992,428.235962 1272.940063,417.152740 
	C1269.262695,389.557465 1258.836426,364.411743 1243.676392,341.251556 
	C1232.066772,323.515320 1217.866699,308.045685 1201.295776,294.709625 
	C1182.197998,279.340027 1161.127563,267.658203 1137.380249,259.093292 
z"/>
<path fill="#4C6971" opacity="1.000000" stroke="none" 
	d="
M584.000000,1248.000000 
	C389.699860,1248.000000 195.399734,1248.000000 1.049796,1248.000000 
	C1.049796,832.437561 1.049796,416.875092 1.049796,1.000000 
	C195.029266,1.000000 389.058685,1.000000 583.319824,1.367380 
	C576.287903,2.164277 568.960388,2.128311 561.773499,3.116107 
	C544.566223,5.481156 527.395447,8.150767 510.264313,11.021812 
	C484.904205,15.271974 459.974945,21.481611 435.680786,29.835844 
	C416.049103,36.586746 396.424347,43.611847 377.487762,52.063965 
	C355.335175,61.951530 333.272522,72.395638 312.385895,84.666527 
	C290.688477,97.413757 269.851593,111.846985 249.732285,126.995712 
	C230.435394,141.525223 212.086227,157.416687 194.190384,173.667480 
	C182.198090,184.557449 171.395859,196.829910 160.657318,209.009415 
	C148.587982,222.698288 136.564789,236.510986 125.639481,251.106644 
	C107.474922,275.373566 91.153992,300.930603 76.798843,327.657135 
	C60.785332,357.471222 46.642002,388.219543 36.249054,420.418457 
	C28.431011,444.639923 21.713936,469.306366 16.173153,494.146423 
	C11.261691,516.165222 8.126484,538.628235 5.200717,561.024963 
	C3.237302,576.054932 2.249496,591.308167 2.187304,606.467102 
	C2.103013,627.012329 2.885155,647.589355 4.122854,668.102844 
	C5.092353,684.171204 6.804662,700.238647 9.125465,716.169800 
	C11.647578,733.482788 14.331647,750.871338 18.617432,767.803650 
	C24.223167,789.950745 30.939613,811.858276 38.135612,833.551331 
	C48.483170,864.744934 62.300022,894.486389 78.066101,923.319946 
	C92.944550,950.530029 109.797066,976.411804 128.440765,1001.231201 
	C144.017288,1021.967468 160.770844,1041.664673 178.901382,1060.080688 
	C193.736954,1075.149902 209.474426,1089.444092 225.750107,1102.951660 
	C242.764221,1117.072144 260.555481,1130.331543 278.658813,1143.038818 
	C291.766724,1152.239746 305.854462,1160.066772 319.653992,1168.255737 
	C343.971039,1182.686279 369.471497,1194.765259 395.819153,1204.937622 
	C412.433319,1211.352173 429.279266,1217.266846 446.300781,1222.495850 
	C461.910492,1227.291382 477.767944,1231.469360 493.743988,1234.839966 
	C518.615479,1240.087280 543.627808,1244.732788 569.116272,1246.078369 
	C574.097473,1246.341431 579.039734,1247.340454 584.000000,1248.000000 
z"/>
<path fill="#FF0033" opacity="1.000000" stroke="none" 
	d="
M584.468628,1248.000000 
	C579.039734,1247.340454 574.097473,1246.341431 569.116272,1246.078369 
	C543.627808,1244.732788 518.615479,1240.087280 493.743988,1234.839966 
	C477.767944,1231.469360 461.910492,1227.291382 446.300781,1222.495850 
	C429.279266,1217.266846 412.433319,1211.352173 395.819153,1204.937622 
	C369.471497,1194.765259 343.971039,1182.686279 319.653992,1168.255737 
	C305.854462,1160.066772 291.766724,1152.239746 278.658813,1143.038818 
	C260.555481,1130.331543 242.764221,1117.072144 225.750107,1102.951660 
	C209.474426,1089.444092 193.736954,1075.149902 178.901382,1060.080688 
	C160.770844,1041.664673 144.017288,1021.967468 128.440765,1001.231201 
	C109.797066,976.411804 92.944550,950.530029 78.066101,923.319946 
	C62.300022,894.486389 48.483170,864.744934 38.135612,833.551331 
	C30.939613,811.858276 24.223167,789.950745 18.617432,767.803650 
	C14.331647,750.871338 11.647578,733.482788 9.125465,716.169800 
	C6.804662,700.238647 5.092353,684.171204 4.122854,668.102844 
	C2.885155,647.589355 2.103013,627.012329 2.187304,606.467102 
	C2.249496,591.308167 3.237302,576.054932 5.200717,561.024963 
	C8.126484,538.628235 11.261691,516.165222 16.173153,494.146423 
	C21.713936,469.306366 28.431011,444.639923 36.249054,420.418457 
	C46.642002,388.219543 60.785332,357.471222 76.798843,327.657135 
	C91.153992,300.930603 107.474922,275.373566 125.639481,251.106644 
	C136.564789,236.510986 148.587982,222.698288 160.657318,209.009415 
	C171.395859,196.829910 182.198090,184.557449 194.190384,173.667480 
	C212.086227,157.416687 230.435394,141.525223 249.732285,126.995712 
	C269.851593,111.846985 290.688477,97.413757 312.385895,84.666527 
	C333.272522,72.395638 355.335175,61.951530 377.487762,52.063965 
	C396.424347,43.611847 416.049103,36.586746 435.680786,29.835844 
	C459.974945,21.481611 484.904205,15.271974 510.264313,11.021812 
	C527.395447,8.150767 544.566223,5.481156 561.773499,3.116107 
	C568.960388,2.128311 576.287903,2.164277 583.775757,1.367380 
	C612.354248,1.000000 640.708435,1.000000 669.531372,1.000001 
	C675.460022,1.665985 680.930115,2.258829 686.378174,3.011287 
	C704.728210,5.545700 723.196228,7.468318 741.381104,10.889901 
	C760.470947,14.481759 779.519226,18.731443 798.159851,24.156916 
	C818.848145,30.178383 839.270813,37.289658 859.403259,44.987808 
	C875.604431,51.182724 891.523743,58.321747 907.000122,66.162956 
	C941.713440,83.750648 974.797607,104.062660 1005.544250,128.031525 
	C1013.543884,134.267685 1021.536865,140.512299 1030.567871,147.560837 
	C1027.948242,147.776398 1026.590088,147.983185 1025.231689,147.985321 
	C1010.399536,148.008621 995.547363,147.547531 980.744019,148.200562 
	C973.868896,148.503860 968.967712,145.753036 963.686646,142.294266 
	C948.489990,132.341507 933.303955,122.338814 917.694275,113.061432 
	C905.562256,105.850945 893.138306,98.933212 880.242004,93.252319 
	C859.452515,84.094467 838.309998,75.684258 817.055481,67.649040 
	C789.764709,57.331856 761.396606,50.646320 732.798218,45.237026 
	C717.184143,42.283669 701.236206,41.124565 685.464417,38.969166 
	C657.739563,35.180244 629.851807,35.643631 602.015198,36.184185 
	C587.403076,36.467926 572.752747,38.106255 558.253967,40.106495 
	C537.338867,42.991932 516.314392,45.747807 495.765076,50.437061 
	C474.611420,55.264233 453.709045,61.582584 433.185089,68.663933 
	C414.504700,75.109200 396.365875,83.189865 378.191986,91.022163 
	C349.951080,103.193001 323.545288,118.808685 298.228821,136.114609 
	C281.865997,147.299973 265.991943,159.324722 250.764389,172.012100 
	C235.027557,185.123795 219.695297,198.860550 205.341873,213.460205 
	C184.334671,234.827789 165.107681,257.783661 147.780487,282.352844 
	C132.069092,304.630890 117.796051,327.694153 104.995361,351.750702 
	C88.396584,382.944977 74.757446,415.394989 64.640732,449.170013 
	C57.760136,472.141174 52.218212,495.572327 47.316105,519.056274 
	C44.073521,534.590149 43.011124,550.580139 40.997414,566.369141 
	C37.907429,590.596924 37.364834,614.963196 38.147793,639.308105 
	C38.708889,656.754578 40.514996,674.167603 41.992290,691.576355 
	C44.241562,718.082153 49.509895,744.081116 56.048748,769.808228 
	C63.469944,799.006775 72.826324,827.590393 85.071396,855.158691 
	C90.660011,867.740723 95.842232,880.578735 102.466042,892.608337 
	C113.046989,911.824524 123.789520,931.065979 136.100494,949.184631 
	C149.715973,969.223083 164.622879,988.462097 180.005432,1007.196899 
	C191.963303,1021.760681 204.897751,1035.659424 218.500946,1048.703735 
	C239.159836,1068.513794 261.184753,1086.762207 284.590881,1103.403076 
	C312.070404,1122.939941 340.751099,1140.359863 371.099762,1154.919434 
	C403.311707,1170.373169 436.466370,1183.554321 471.268982,1192.055542 
	C491.580017,1197.017090 511.929382,1201.983276 532.482300,1205.739136 
	C547.636658,1208.508545 563.110779,1210.041260 578.509277,1210.844604 
	C603.022705,1212.123291 627.603271,1213.102539 652.133240,1212.733154 
	C668.852295,1212.481323 685.535339,1209.732056 702.231079,1208.066040 
	C728.534912,1205.441650 754.417786,1200.317505 779.698181,1192.830444 
	C802.541138,1186.065430 825.211914,1178.499756 847.433960,1169.927002 
	C865.451843,1162.976440 883.036865,1154.673950 900.192566,1145.773438 
	C924.630554,1133.094727 948.092957,1118.670654 970.275940,1102.265869 
	C971.243896,1101.550171 972.636780,1101.059937 973.833923,1101.055298 
	C991.832153,1100.986084 1009.830750,1101.013672 1027.829224,1101.037598 
	C1028.265503,1101.038208 1028.701538,1101.257935 1029.880859,1101.575684 
	C1024.083008,1106.330811 1018.905518,1111.015259 1013.291138,1115.098999 
	C997.123413,1126.858521 981.147278,1138.942261 964.396484,1149.821777 
	C949.019897,1159.808838 932.929016,1168.754395 916.807495,1177.524048 
	C883.335266,1195.732178 848.280334,1210.413818 811.677490,1220.911255 
	C787.361511,1227.885010 762.663452,1233.721924 737.874268,1238.783447 
	C720.559143,1242.318848 702.806702,1243.731201 685.235535,1245.981812 
	C680.332275,1246.609985 675.378967,1246.848145 670.224304,1247.632568 
	C641.645752,1248.000000 613.291565,1248.000000 584.468628,1248.000000 
z"/>
<path fill="#FF0033" opacity="1.000000" stroke="none" 
	d="
M1137.711060,259.311401 
	C1161.127563,267.658203 1182.197998,279.340027 1201.295776,294.709625 
	C1217.866699,308.045685 1232.066772,323.515320 1243.676392,341.251556 
	C1258.836426,364.411743 1269.262695,389.557465 1272.940063,417.152740 
	C1274.416992,428.235962 1275.245117,439.422180 1275.956299,450.587799 
	C1277.855713,480.408722 1273.834351,509.585052 1264.806885,537.961121 
	C1258.509399,557.756470 1248.843140,576.011414 1236.012573,592.440918 
	C1212.279663,622.830627 1182.133057,645.032288 1146.979980,660.293335 
	C1132.665283,666.507874 1117.550781,670.880005 1102.646973,676.144531 
	C1120.992065,706.333740 1139.753174,737.089722 1158.390137,767.920715 
	C1169.825562,786.838318 1181.004150,805.911011 1192.418457,824.841492 
	C1206.284790,847.838623 1220.308716,870.740723 1234.207031,893.718689 
	C1246.323853,913.751587 1258.351318,933.838623 1270.437134,953.890381 
	C1276.101440,963.288269 1281.550293,972.833862 1287.658813,981.935303 
	C1289.460693,984.620056 1292.933350,986.991760 1296.078125,987.796326 
	C1302.371338,989.406433 1308.966675,989.835388 1315.737793,990.794617 
	C1315.737793,997.119995 1315.737793,1003.710632 1315.737793,1010.651733 
	C1246.045898,1010.651733 1176.457153,1010.651733 1106.433960,1010.651733 
	C1106.433960,1004.104553 1106.433960,997.394043 1106.433960,990.791687 
	C1111.180176,989.853699 1116.055298,989.265808 1120.694336,987.885010 
	C1127.559326,985.841797 1129.480347,980.728699 1125.902832,974.707214 
	C1112.431885,952.033325 1098.833618,929.435120 1085.380249,906.750854 
	C1070.923950,882.375854 1056.628906,857.905212 1042.165405,833.534485 
	C1031.298828,815.224243 1020.205322,797.048584 1009.342590,778.736084 
	C994.886414,754.365845 980.573792,729.910583 966.159424,705.515564 
	C962.576904,699.452454 958.924561,693.425842 955.101440,687.513672 
	C954.359070,686.365601 952.677490,685.113586 951.425598,685.109985 
	C917.761658,685.013000 884.097290,685.071899 850.432983,685.121948 
	C850.141113,685.122375 849.849609,685.359558 849.000000,685.728516 
	C849.000000,687.606934 849.000000,689.722168 849.000000,691.837402 
	C849.000000,785.503174 849.000000,879.168884 849.000000,972.834656 
	C849.000000,983.351746 851.697144,986.728333 862.082947,988.901733 
	C865.130859,989.539551 868.249146,989.840637 871.669922,990.345520 
	C871.669922,996.993103 871.669922,1003.721497 871.669922,1010.726318 
	C809.893127,1010.726318 748.304138,1010.726318 686.357178,1010.726318 
	C686.357178,1003.940979 686.357178,997.224365 686.357178,991.218567 
	C692.751709,989.276245 698.855896,987.594788 704.832703,985.542664 
	C708.494141,984.285461 710.213623,981.368774 710.006897,977.419556 
	C709.954651,976.422302 709.999939,975.419983 709.999939,974.419983 
	C710.000000,741.088989 710.000122,507.757965 709.999817,274.426941 
	C709.999817,266.095093 708.592712,263.896729 700.830078,261.453369 
	C696.500977,260.090759 692.000549,259.272461 687.251465,258.130524 
	C687.251465,251.894897 687.251465,245.297226 687.251465,238.000275 
	C689.122681,238.000275 690.886108,238.000259 692.649536,238.000259 
	C796.315186,238.000198 899.981201,237.861755 1003.646118,238.134933 
	C1021.135742,238.181015 1038.671997,239.465439 1056.096191,241.126755 
	C1083.880859,243.775925 1111.067993,249.565781 1137.711060,259.311401 
M997.500000,559.000122 
	C1019.804810,559.138000 1042.100952,559.572693 1064.017822,554.040955 
	C1097.936523,545.480103 1123.171143,526.480225 1137.002319,493.778625 
	C1143.959106,477.330658 1146.000488,460.042480 1142.640625,442.539276 
	C1137.702759,416.815643 1122.381104,397.947784 1101.526978,382.997223 
	C1080.667480,368.042938 1057.203369,359.595093 1031.840698,359.253876 
	C972.705383,358.458435 913.552063,359.000031 854.406067,358.999969 
	C852.668335,358.999969 850.930603,358.999969 849.326294,358.999969 
	C849.326294,426.110046 849.326294,492.349091 849.326294,559.000122 
	C898.600891,559.000122 947.550476,559.000122 997.500000,559.000122 
z"/>
<path fill="#4C6971" opacity="1.000000" stroke="none" 
	d="
M997.000000,559.000122 
	C947.550476,559.000122 898.600891,559.000122 849.326294,559.000122 
	C849.326294,492.349091 849.326294,426.110046 849.326294,358.999969 
	C850.930603,358.999969 852.668335,358.999969 854.406067,358.999969 
	C913.552063,359.000031 972.705383,358.458435 1031.840698,359.253876 
	C1057.203369,359.595093 1080.667480,368.042938 1101.526978,382.997223 
	C1122.381104,397.947784 1137.702759,416.815643 1142.640625,442.539276 
	C1146.000488,460.042480 1143.959106,477.330658 1137.002319,493.778625 
	C1123.171143,526.480225 1097.936523,545.480103 1064.017822,554.040955 
	C1042.100952,559.572693 1019.804810,559.138000 997.000000,559.000122 
z"/>
</svg>